<svg width="58" height="57" viewBox="0 0 58 57" fill="none" xmlns="http://www.w3.org/2000/svg">
<path d="M29 6V42" stroke="#6E47A7" stroke-width="1.5" stroke-linecap="round" stroke-linejoin="round"/>
<path d="M28.0037 5.78388C26.7338 4.77044 25.0341 4.47607 23.4973 5.00342C21.9605 5.53076 20.7997 6.80672 20.4196 8.38638C20.2852 9.00099 19.8039 9.48034 19.1888 9.61239C17.3805 9.97942 15.8732 11.2221 15.1682 12.9273C14.4632 14.6325 14.6528 16.5768 15.6739 18.1137C16.0419 18.6524 16.0419 19.3617 15.6739 19.9004C14.6528 21.4373 14.4632 23.3816 15.1682 25.0868C15.8732 26.792 17.3805 28.0347 19.1888 28.4017C19.8039 28.5338 20.2852 29.0131 20.4196 29.6277C20.8018 31.206 21.9634 32.4799 23.4999 33.0055C25.0364 33.5311 26.7349 33.2358 28.0037 32.2223" stroke="#6E47A7" stroke-width="1.5" stroke-linecap="round" stroke-linejoin="round"/>
<path d="M24.2481 12.6631C24.2481 14.4127 22.8297 15.8311 21.0801 15.8311" stroke="#6E47A7" stroke-width="1.5" stroke-linecap="round" stroke-linejoin="round"/>
<path d="M24.2481 25.335C24.2481 23.5853 22.8297 22.167 21.0801 22.167" stroke="#6E47A7" stroke-width="1.5" stroke-linecap="round" stroke-linejoin="round"/>
<path d="M29.9963 15.7843V15.7764C31.2652 14.7629 32.9637 14.4676 34.5002 14.9932C36.0366 15.5188 37.1983 16.7927 37.5805 18.3709C37.7149 18.9856 38.1961 19.4649 38.8113 19.597C40.6198 19.9642 42.1271 21.2073 42.8319 22.913C43.5366 24.6186 43.3464 26.5631 42.3246 28.0998C41.958 28.6379 41.958 29.3454 42.3246 29.8834C43.3464 31.4202 43.5366 33.3647 42.8319 35.0703C42.1271 36.7759 40.6198 38.019 38.8113 38.3863C38.1961 38.5183 37.7149 38.9977 37.5805 39.6123C37.2025 41.1933 36.0425 42.4714 34.5054 43.0005C32.9683 43.5295 31.2674 43.2361 29.9963 42.2227" stroke="#6E47A7" stroke-width="1.5" stroke-linecap="round" stroke-linejoin="round"/>
<path d="M33.7522 35.336C33.7522 33.5863 35.1706 32.168 36.9202 32.168" stroke="#6E47A7" stroke-width="1.5" stroke-linecap="round" stroke-linejoin="round"/>
<path d="M33.7522 22.6641C33.7522 24.4137 35.1706 25.832 36.9202 25.832" stroke="#6E47A7" stroke-width="1.5" stroke-linecap="round" stroke-linejoin="round"/>
</svg>
