<svg width="58" height="57" viewBox="0 0 58 57" fill="none" xmlns="http://www.w3.org/2000/svg">
<path d="M29 16.1348V41.8636" stroke="#6E47A7" stroke-width="1.5" stroke-linecap="round" stroke-linejoin="round"/>
<path d="M28.0037 15.7839C26.7338 14.7704 25.0341 14.4761 23.4973 15.0034C21.9605 15.5308 20.7997 16.8067 20.4196 18.3864C20.2852 19.001 19.8039 19.4803 19.1888 19.6124C17.3805 19.9794 15.8732 21.2221 15.1682 22.9273C14.4632 24.6325 14.6528 26.5768 15.6739 28.1137C16.0419 28.6524 16.0419 29.3617 15.6739 29.9004C14.6528 31.4373 14.4632 33.3816 15.1682 35.0868C15.8732 36.792 17.3805 38.0347 19.1888 38.4017C19.8039 38.5338 20.2852 39.0131 20.4196 39.6277C20.8018 41.206 21.9634 42.4799 23.4999 43.0055C25.0364 43.5311 26.7349 43.2358 28.0037 42.2223" stroke="#6E47A7" stroke-width="1.5" stroke-linecap="round" stroke-linejoin="round"/>
<path d="M24.2481 22.6631C24.2481 24.4127 22.8297 25.8311 21.0801 25.8311" stroke="#6E47A7" stroke-width="1.5" stroke-linecap="round" stroke-linejoin="round"/>
<path d="M24.2481 35.335C24.2481 33.5853 22.8297 32.167 21.0801 32.167" stroke="#6E47A7" stroke-width="1.5" stroke-linecap="round" stroke-linejoin="round"/>
<path d="M29.9963 15.7843V15.7764C31.2652 14.7629 32.9637 14.4676 34.5002 14.9932C36.0366 15.5188 37.1983 16.7927 37.5805 18.3709C37.7149 18.9856 38.1961 19.4649 38.8113 19.597C40.6198 19.9642 42.1271 21.2073 42.8319 22.913C43.5366 24.6186 43.3464 26.5631 42.3246 28.0998C41.958 28.6379 41.958 29.3454 42.3246 29.8834C43.3464 31.4202 43.5366 33.3647 42.8319 35.0703C42.1271 36.7759 40.6198 38.019 38.8113 38.3863C38.1961 38.5183 37.7149 38.9977 37.5805 39.6123C37.2025 41.1933 36.0425 42.4714 34.5054 43.0005C32.9683 43.5295 31.2674 43.2361 29.9963 42.2227" stroke="#6E47A7" stroke-width="1.5" stroke-linecap="round" stroke-linejoin="round"/>
<path d="M33.7522 35.336C33.7522 33.5863 35.1706 32.168 36.9202 32.168" stroke="#6E47A7" stroke-width="1.5" stroke-linecap="round" stroke-linejoin="round"/>
<path d="M33.7522 22.6641C33.7522 24.4137 35.1706 25.832 36.9202 25.832" stroke="#6E47A7" stroke-width="1.5" stroke-linecap="round" stroke-linejoin="round"/>
</svg>
