<svg width="58" height="57" viewBox="0 0 58 57" fill="none" xmlns="http://www.w3.org/2000/svg">
<path fill-rule="evenodd" clip-rule="evenodd" d="M16.7518 30.167C11.9182 30.1709 8.00255 34.0917 8.00513 38.9253C8.00771 43.7589 11.9275 47.6756 16.7611 47.6743C21.5947 47.673 25.5124 43.7542 25.5124 38.9206C25.5118 36.598 24.5884 34.3708 22.9454 32.7291C21.3024 31.0874 19.0744 30.1658 16.7518 30.167Z" stroke="#FFA000" stroke-width="1.5" stroke-linecap="round" stroke-linejoin="round"/>
<path fill-rule="evenodd" clip-rule="evenodd" d="M41.2479 30.167C36.4143 30.1709 32.4986 34.0917 32.5012 38.9253C32.5038 43.7589 36.4236 47.6756 41.2572 47.6743C46.0908 47.673 50.0085 43.7542 50.0085 38.9206C50.0079 36.598 49.0845 34.3708 47.4415 32.7291C45.7985 31.0874 43.5705 30.1658 41.2479 30.167V30.167Z" stroke="#FFA000" stroke-width="1.5" stroke-linecap="round" stroke-linejoin="round"/>
<path fill-rule="evenodd" clip-rule="evenodd" d="M28.9998 8.98047C24.1662 8.98434 20.2506 12.9052 20.2532 17.7388C20.2558 22.5724 24.1756 26.489 29.0092 26.4878C33.8427 26.4865 37.7605 22.5677 37.7605 17.7341C37.7598 15.4115 36.8364 13.1843 35.1934 11.5426C33.5504 9.90087 31.3225 8.97923 28.9998 8.98047Z" stroke="#FFA000" stroke-width="1.5" stroke-linecap="round" stroke-linejoin="round"/>
</svg>
