<svg width="196" height="68" viewBox="0 0 196 68" fill="none" xmlns="http://www.w3.org/2000/svg">
<rect x="-0.000488281" width="196.001" height="68" rx="34" fill="#16041E"/>
<path fill-rule="evenodd" clip-rule="evenodd" d="M101.098 24.9379H102.362V16.4199H101.098V24.9379ZM74.485 23.9891C75.3359 23.2522 75.762 22.1547 75.762 20.6969C75.762 19.3988 75.3673 18.4017 74.5803 17.7044C73.8779 17.0875 72.8363 16.7791 71.4543 16.7791C70.6721 16.7791 69.9479 16.8361 69.2756 16.9476V24.9131C69.7911 24.9776 70.4066 25.0098 71.1259 25.0098C72.5767 25.0098 73.6968 24.6691 74.485 23.9891ZM73.6968 18.5578C74.1845 19.0631 74.4282 19.7877 74.4282 20.7328C74.4282 21.7906 74.1627 22.5957 73.6365 23.1481C73.1102 23.7005 72.3631 23.9767 71.3951 23.9767C70.9811 23.9767 70.6963 23.9656 70.5406 23.9408V17.8852C70.8218 17.8282 71.161 17.801 71.5593 17.801C72.4971 17.801 73.2092 18.0537 73.6968 18.5578ZM122.821 42.6985C122.821 44.1006 122.347 45.2414 121.394 46.1221C120.348 47.0845 118.891 47.565 117.019 47.565C115.291 47.565 113.905 47.2232 112.856 46.5382L113.453 44.3372C114.582 45.0383 115.822 45.39 117.172 45.39C118.142 45.39 118.896 45.1646 119.438 44.7162C119.978 44.2678 120.247 43.6659 120.247 42.9153C120.247 42.2464 120.025 41.6828 119.579 41.2258C119.137 40.7687 118.396 40.3439 117.363 39.9512C114.551 38.8749 113.146 37.2981 113.146 35.2247C113.146 33.8696 113.638 32.7586 114.625 31.894C115.607 31.0282 116.918 30.5959 118.557 30.5959C120.018 30.5959 121.233 30.8573 122.202 31.3787L121.559 33.5315C120.654 33.0261 119.63 32.7734 118.485 32.7734C117.58 32.7734 116.872 33.0026 116.365 33.4584C115.937 33.8659 115.722 34.3626 115.722 34.9509C115.722 35.6024 115.967 36.1412 116.459 36.5649C116.888 36.9563 117.667 37.3799 118.796 37.8369C120.178 38.4079 121.193 39.0755 121.846 39.841C122.497 40.604 122.821 41.559 122.821 42.6985ZM81.3081 47.321H78.567L77.0656 42.4793H71.8465L70.4162 47.321H67.7476L72.9183 30.8375H76.112L81.3081 47.321ZM76.6129 40.4479L75.2551 36.1437C75.1114 35.704 74.8423 34.6685 74.4452 33.0385H74.3969C74.2388 33.7396 73.9841 34.775 73.6341 36.1437L72.3004 40.4479H76.6129ZM94.6055 41.232C94.6055 43.2534 94.0733 44.8512 93.0087 46.0242C92.0552 47.0684 90.8711 47.5898 89.4577 47.5898C87.9321 47.5898 86.8361 47.0275 86.1687 45.9028H86.1204V52.164H83.5471V39.348C83.5471 38.0772 83.5145 36.7729 83.4518 35.4352H85.7149L85.8585 37.3192H85.9068C86.765 35.8997 88.0672 35.1912 89.815 35.1912C91.1813 35.1912 92.3219 35.7449 93.2344 36.8534C94.1493 37.9633 94.6055 39.4223 94.6055 41.232ZM91.984 41.3286C91.984 40.1717 91.7305 39.218 91.2211 38.4674C90.6647 37.6846 89.9176 37.2932 88.9809 37.2932C88.3461 37.2932 87.7692 37.5112 87.2538 37.941C86.7372 38.3745 86.3992 38.9405 86.2411 39.6416C86.1614 39.9686 86.1216 40.2361 86.1216 40.4467V42.4285C86.1216 43.293 86.3799 44.0226 86.8965 44.6184C87.4131 45.2141 88.0842 45.5114 88.9098 45.5114C89.879 45.5114 90.6333 45.1274 91.1729 44.362C91.7136 43.5953 91.984 42.5845 91.984 41.3286ZM106.329 46.0242C107.395 44.8512 107.927 43.2534 107.927 41.232C107.927 39.4223 107.47 37.9633 106.558 36.8534C105.643 35.7449 104.503 35.1912 103.138 35.1912C101.389 35.1912 100.086 35.8997 99.2294 37.3192H99.1812L99.0375 35.4352H96.7744C96.8372 36.7729 96.8698 38.0772 96.8698 39.348V52.164H99.4431V45.9028H99.4914C100.158 47.0275 101.254 47.5898 102.779 47.5898C104.193 47.5898 105.377 47.0684 106.329 46.0242ZM104.541 38.4674C105.051 39.218 105.305 40.1717 105.305 41.3286C105.305 42.5845 105.035 43.5953 104.494 44.362C103.955 45.1274 103.2 45.5114 102.231 45.5114C101.403 45.5114 100.732 45.2129 100.216 44.6184C99.7014 44.0226 99.4431 43.293 99.4431 42.4285V40.4467C99.4431 40.2361 99.4842 39.9686 99.5625 39.6416C99.7207 38.9405 100.057 38.3745 100.574 37.941C101.091 37.5112 101.666 37.2932 102.302 37.2932C103.24 37.2932 103.985 37.6846 104.541 38.4674ZM128.493 37.417H131.329V35.4328H128.493V32.4737L125.966 33.2565V35.4328H124.276V37.4145H125.966V43.4058C125.966 44.9057 126.253 45.9734 126.824 46.6101C127.397 47.2455 128.191 47.5638 129.207 47.5638C130.034 47.5638 130.702 47.466 131.209 47.2715L131.137 45.2662C130.836 45.3479 130.454 45.3888 129.994 45.3888C128.993 45.3888 128.493 44.6555 128.493 43.1878V37.417ZM144.127 41.2803C144.127 43.1072 143.618 44.6072 142.601 45.7802C141.536 46.9878 140.121 47.5898 138.358 47.5898C136.659 47.5898 135.305 47.0114 134.296 45.8545C133.287 44.6976 132.782 43.2373 132.782 41.4772C132.782 39.6354 133.302 38.1268 134.343 36.9538C135.382 35.7796 136.785 35.1925 138.549 35.1925C140.248 35.1925 141.616 35.7709 142.648 36.929C143.634 38.0524 144.127 39.5029 144.127 41.2803ZM141.457 41.3657C141.457 40.2696 141.229 39.3295 140.767 38.5454C140.227 37.5966 139.456 37.1235 138.456 37.1235C137.423 37.1235 136.637 37.5979 136.097 38.5454C135.635 39.3307 135.407 40.2857 135.407 41.4153C135.407 42.5115 135.635 43.4516 136.097 44.2344C136.653 45.1832 137.431 45.6563 138.434 45.6563C139.416 45.6563 140.187 45.1733 140.744 44.2096C141.218 43.4107 141.457 42.4607 141.457 41.3657ZM151.68 37.6846C151.965 37.6846 152.237 37.7093 152.491 37.7576V35.2395C152.301 35.2086 152.086 35.1912 151.848 35.1912C151.18 35.1912 150.561 35.403 149.988 35.8279C149.402 36.2998 148.973 36.929 148.702 37.7106H148.63L148.536 35.4365H146.295C146.359 36.5611 146.392 37.8084 146.392 39.1783L146.367 47.321H148.939V41.0846C148.939 40.1395 149.154 39.3567 149.583 38.7374C150.075 38.0351 150.775 37.6846 151.68 37.6846ZM164 40.8158C164 41.289 163.97 41.6878 163.906 42.0135H156.186C156.216 43.1878 156.589 44.0858 157.306 44.7051C157.957 45.2587 158.798 45.5362 159.831 45.5362C160.974 45.5362 162.017 45.3491 162.955 44.9738L163.358 46.807C162.262 47.2975 160.968 47.5415 159.475 47.5415C157.679 47.5415 156.27 46.999 155.243 45.9152C154.22 44.8314 153.707 43.376 153.707 41.5503C153.707 39.758 154.184 38.2655 155.138 37.0752C156.138 35.8043 157.488 35.1689 159.188 35.1689C160.857 35.1689 162.121 35.8043 162.979 37.0752C163.658 38.0846 164 39.3332 164 40.8158ZM161.546 40.1308C161.564 39.348 161.395 38.6717 161.047 38.1007C160.601 37.3662 159.917 36.9996 158.996 36.9996C158.154 36.9996 157.47 37.3576 156.948 38.076C156.52 38.647 156.264 39.3319 156.186 40.1296H161.546V40.1308ZM82.8337 21.9702C82.8337 22.8682 82.5838 23.6039 82.0841 24.1811C81.5603 24.7744 80.8663 25.0704 79.9996 25.0704C79.1645 25.0704 78.4994 24.7868 78.0033 24.217C77.5084 23.6485 77.261 22.9314 77.261 22.0668C77.261 21.1626 77.5157 20.4207 78.0275 19.8447C78.5392 19.2687 79.2272 18.9802 80.0938 18.9802C80.9291 18.9802 81.6001 19.2638 82.1083 19.8323C82.5911 20.3847 82.8337 21.0982 82.8337 21.9702ZM81.5217 22.0123C81.5217 21.4735 81.4082 21.0115 81.1825 20.6263C80.917 20.1606 80.5392 19.9277 80.048 19.9277C79.5398 19.9277 79.1536 20.1606 78.888 20.6263C78.6612 21.0115 78.5489 21.4809 78.5489 22.0358C78.5489 22.5746 78.6623 23.0366 78.888 23.4218C79.162 23.8876 79.5434 24.1204 80.0359 24.1204C80.5187 24.1204 80.8976 23.8839 81.1705 23.4095C81.4046 23.0168 81.5217 22.5511 81.5217 22.0123ZM91.0738 19.1003H92.3155L90.5356 24.9379H89.3769L88.6394 22.4025C88.4522 21.7695 88.3002 21.1403 88.1819 20.516H88.1589C88.0491 21.1576 87.8971 21.7856 87.7015 22.4025L86.9182 24.9379H85.7462L84.0721 19.0991H85.3721L86.0153 21.8748C86.171 22.5313 86.299 23.1568 86.4016 23.7488H86.4245C86.5186 23.2608 86.6744 22.639 86.8941 21.8872L87.7015 19.1003H88.7323L89.506 21.8277C89.6931 22.4929 89.8451 23.1332 89.9622 23.7501H89.9972C90.0829 23.1493 90.212 22.509 90.3835 21.8277L91.0738 19.1003ZM98.8734 24.9379H97.6085V21.5936C97.6085 20.5631 97.227 20.0478 96.4618 20.0478C96.0864 20.0478 95.7835 20.189 95.5482 20.4727C95.3152 20.7563 95.1969 21.0908 95.1969 21.4735V24.9367H93.9319V20.7675C93.9319 20.2547 93.9163 19.6986 93.8861 19.0966H94.9978L95.0569 20.0094H95.0919C95.2391 19.7258 95.4588 19.4917 95.7473 19.3047C96.09 19.0867 96.4739 18.9764 96.8939 18.9764C97.425 18.9764 97.8668 19.1523 98.218 19.5053C98.6549 19.9376 98.8734 20.5829 98.8734 21.4401V24.9379ZM109.809 21.9702C109.809 22.8682 109.559 23.6039 109.06 24.1811C108.535 24.7744 107.84 25.0704 106.975 25.0704C106.138 25.0704 105.473 24.7868 104.978 24.217C104.483 23.6485 104.236 22.9314 104.236 22.0668C104.236 21.1626 104.491 20.4207 105.003 19.8447C105.514 19.2687 106.202 18.9802 107.068 18.9802C107.904 18.9802 108.574 19.2638 109.083 19.8323C109.566 20.3847 109.809 21.0982 109.809 21.9702ZM108.496 22.0123C108.496 21.4735 108.382 21.0115 108.156 20.6263C107.892 20.1606 107.513 19.9277 107.023 19.9277C106.514 19.9277 106.127 20.1606 105.863 20.6263C105.636 21.0115 105.524 21.4809 105.524 22.0358C105.524 22.5746 105.637 23.0366 105.863 23.4218C106.137 23.8876 106.519 24.1204 107.011 24.1204C107.494 24.1204 107.871 23.8839 108.144 23.4095C108.38 23.0168 108.496 22.5511 108.496 22.0123ZM114.795 24.9379H115.93C115.876 24.5936 115.849 24.1291 115.849 23.5457V21.3955C115.849 19.7853 115.103 18.9802 113.616 18.9802C112.845 18.9802 112.193 19.1486 111.664 19.4843L111.921 20.3364C112.348 20.0491 112.843 19.9042 113.405 19.9042C114.192 19.9042 114.586 20.2881 114.586 21.0573V21.1663C113.532 21.1576 112.714 21.3422 112.132 21.7187C111.549 22.0953 111.259 22.639 111.259 23.3525C111.259 23.8244 111.408 24.222 111.705 24.5416C112.032 24.8933 112.467 25.0704 113.004 25.0704C113.723 25.0704 114.277 24.8017 114.666 24.2653H114.701L114.795 24.9379ZM114.618 22.0309V22.9314C114.618 23.0193 114.61 23.0961 114.597 23.1593C114.543 23.4404 114.397 23.6696 114.159 23.8504C113.922 24.03 113.663 24.1204 113.385 24.1204C113.138 24.1204 112.93 24.0449 112.767 23.8925C112.604 23.7402 112.525 23.5123 112.525 23.2076C112.525 22.3987 113.222 22.0061 114.618 22.0309ZM123.118 24.9379H121.995L121.937 24.0003H121.901C121.543 24.7137 120.933 25.0704 120.075 25.0704C119.388 25.0704 118.818 24.7942 118.365 24.2418C117.913 23.6894 117.686 22.9722 117.686 22.0916C117.686 21.1465 117.932 20.381 118.424 19.7964C118.901 19.2514 119.485 18.9789 120.18 18.9789C120.944 18.9789 121.479 19.2427 121.784 19.7716H121.807V16.4199H123.074V23.3649C123.074 23.9334 123.088 24.4573 123.118 24.9379ZM121.807 22.4755V21.502C121.807 21.3335 121.795 21.1973 121.773 21.0932C121.701 20.7811 121.548 20.5185 121.315 20.3067C121.079 20.0949 120.796 19.9884 120.469 19.9884C119.997 19.9884 119.627 20.1804 119.356 20.5656C119.087 20.9508 118.95 21.4425 118.95 22.0433C118.95 22.6205 119.08 23.0887 119.339 23.4491C119.613 23.8331 119.982 24.0251 120.445 24.0251C120.86 24.0251 121.192 23.8653 121.444 23.5445C121.688 23.2484 121.807 22.8917 121.807 22.4755ZM133.187 24.1811C133.687 23.6039 133.936 22.8682 133.936 21.9702C133.936 21.0982 133.694 20.3847 133.211 19.8323C132.704 19.2638 132.032 18.9802 131.198 18.9802C130.33 18.9802 129.642 19.2687 129.131 19.8447C128.618 20.4207 128.364 21.1626 128.364 22.0668C128.364 22.9314 128.611 23.6485 129.106 24.217C129.603 24.7868 130.268 25.0704 131.102 25.0704C131.97 25.0704 132.663 24.7744 133.187 24.1811ZM132.286 20.6263C132.513 21.0115 132.626 21.4735 132.626 22.0123C132.626 22.5511 132.507 23.0168 132.274 23.4095C132.002 23.8839 131.622 24.1204 131.138 24.1204C130.646 24.1204 130.265 23.8876 129.991 23.4218C129.765 23.0366 129.652 22.5746 129.652 22.0358C129.652 21.4809 129.764 21.0115 129.991 20.6263C130.258 20.1606 130.644 19.9277 131.151 19.9277C131.643 19.9277 132.02 20.1606 132.286 20.6263ZM140.738 24.9379H139.474V21.5936C139.474 20.5631 139.093 20.0478 138.326 20.0478C137.951 20.0478 137.648 20.189 137.414 20.4727C137.18 20.7563 137.062 21.0908 137.062 21.4735V24.9367H135.797V20.7675C135.797 20.2547 135.782 19.6986 135.751 19.0966H136.862L136.921 20.0094H136.956C137.105 19.7258 137.325 19.4917 137.612 19.3047C137.956 19.0867 138.339 18.9764 138.76 18.9764C139.289 18.9764 139.731 19.1523 140.082 19.5053C140.52 19.9376 140.738 20.5829 140.738 21.4401V24.9379ZM147.858 20.0714H149.25V19.0978H147.856V17.6449L146.617 18.0289V19.0991H145.785V20.0714H146.617V23.0156C146.617 23.7526 146.757 24.2777 147.04 24.5899C147.32 24.902 147.71 25.0581 148.209 25.0581C148.613 25.0581 148.942 25.0098 149.192 24.9131L149.159 23.9284C149.011 23.9693 148.822 23.9891 148.595 23.9891C148.105 23.9891 147.858 23.6287 147.858 22.9078V20.0714ZM155.947 24.9379H154.681V21.6184C154.681 20.5718 154.3 20.0478 153.536 20.0478C152.949 20.0478 152.548 20.3513 152.328 20.9582C152.291 21.0858 152.269 21.2419 152.269 21.4252V24.9367H151.006V16.4199H152.269V19.9388H152.294C152.692 19.2985 153.262 18.9789 154.003 18.9789C154.526 18.9789 154.96 19.1548 155.304 19.5078C155.732 19.9475 155.947 20.6015 155.947 21.4661V24.9379ZM162.807 22.3306C162.838 22.1708 162.854 21.9751 162.854 21.7423C162.854 21.014 162.687 20.4008 162.347 19.9054C161.927 19.2811 161.306 18.969 160.488 18.969C159.652 18.969 158.989 19.2811 158.498 19.9054C158.029 20.49 157.796 21.2233 157.796 22.104C157.796 23.0007 158.046 23.7154 158.551 24.248C159.052 24.7806 159.747 25.0469 160.628 25.0469C161.363 25.0469 161.998 24.9268 162.538 24.6865L162.339 23.7848C161.879 23.9693 161.366 24.061 160.805 24.061C160.298 24.061 159.884 23.9247 159.563 23.6522C159.212 23.3475 159.031 22.9078 159.014 22.3306H162.807ZM161.402 20.4095C161.574 20.6894 161.658 21.0214 161.648 21.4066H159.014C159.055 21.014 159.179 20.6783 159.389 20.3971C159.646 20.0441 159.983 19.8682 160.396 19.8682C160.848 19.8682 161.183 20.0491 161.402 20.4095Z" fill="white"/>
<path d="M52.924 32.8051C52.8889 28.813 56.1092 26.8708 56.2564 26.7804C54.4327 24.0517 51.6059 23.6789 50.6126 23.6492C48.2384 23.3928 45.9355 25.107 44.7261 25.107C43.4925 25.107 41.6302 23.674 39.623 23.7161C37.04 23.7569 34.6236 25.2916 33.2983 27.6747C30.5633 32.5338 32.6031 39.6745 35.2235 43.6021C36.5343 45.5257 38.066 47.6735 40.0707 47.5979C42.0321 47.5149 42.7647 46.3147 45.1317 46.3147C47.4769 46.3147 48.1648 47.5979 50.2094 47.5496C52.3145 47.5149 53.6397 45.6174 54.9046 43.6764C56.4194 41.4717 57.0277 39.3004 57.0519 39.1889C57.0024 39.1716 52.9638 37.5899 52.924 32.8051Z" fill="white"/>
<path d="M49.0614 21.0647C50.1163 19.7109 50.8381 17.8691 50.6377 16C49.1109 16.0694 47.2014 17.0838 46.1018 18.4079C45.129 19.5747 44.26 21.4871 44.4845 23.2856C46.1996 23.4169 47.9606 22.3975 49.0614 21.0647Z" fill="white"/>
</svg>
