<svg width="58" height="57" viewBox="0 0 58 57" fill="none" xmlns="http://www.w3.org/2000/svg">
<g clip-path="url(#clip0_128_18138)">
<path d="M29.0002 12.6667V8" stroke="#8BC34A" stroke-width="1.5" stroke-linecap="round" stroke-linejoin="round"/>
<path d="M5.66675 31.3327H10.3334" stroke="#8BC34A" stroke-width="1.5" stroke-linecap="round" stroke-linejoin="round"/>
<path d="M5.66675 31.1673H10.3334" stroke="#8BC34A" stroke-width="1.5" stroke-linecap="round" stroke-linejoin="round"/>
<path d="M12.4333 14.7666L15 17.3333" stroke="#8BC34A" stroke-width="1.5" stroke-linecap="round" stroke-linejoin="round"/>
<path d="M45.5667 14.7666L43 17.3333" stroke="#8BC34A" stroke-width="1.5" stroke-linecap="round" stroke-linejoin="round"/>
<path d="M52.3334 31.1003H47.6667" stroke="#8BC34A" stroke-width="1.5" stroke-linecap="round" stroke-linejoin="round"/>
<path d="M52.3334 31.3997H47.6667" stroke="#8BC34A" stroke-width="1.5" stroke-linecap="round" stroke-linejoin="round"/>
</g>
<path d="M8 41.5996C10.5667 40.4329 13.8333 40.4329 16.4 41.5996C18.9667 42.7663 22.2333 42.7663 24.8 41.5996C27.3667 40.4329 30.6333 40.4329 33.2 41.5996C35.7667 42.7663 39.0333 42.7663 41.6 41.5996C44.1667 40.4329 47.4333 40.4329 50 41.5996" stroke="#8BC34A" stroke-width="1.5" stroke-linecap="round" stroke-linejoin="round"/>
<path d="M16.4001 49.0664C18.9668 50.2331 22.2335 50.2331 24.8001 49.0664C27.3668 47.8997 30.6335 47.8997 33.2001 49.0664C35.7668 50.2331 39.0335 50.2331 41.6001 49.0664" stroke="#8BC34A" stroke-width="1.5" stroke-linecap="round" stroke-linejoin="round"/>
<path d="M17.3335 31.3337C17.3335 24.8003 22.4668 19.667 29.0002 19.667C35.5335 19.667 40.6668 24.8003 40.6668 31.3337" stroke="#8BC34A" stroke-width="1.5" stroke-linecap="round" stroke-linejoin="round"/>
<defs>
<clipPath id="clip0_128_18138">
<rect width="48" height="24" fill="white" transform="translate(5 8)"/>
</clipPath>
</defs>
</svg>
