<svg width="1286" height="1001" viewBox="0 0 1286 1001" fill="none" xmlns="http://www.w3.org/2000/svg">
<mask id="mask0_215_18009" style="mask-type:alpha" maskUnits="userSpaceOnUse" x="0" y="0" width="1286" height="1002">
<path d="M566.399 632.891L663.27 465.105L998.841 658.847L901.97 826.633L566.399 632.891Z" fill="white"/>
<path d="M0 387.484C0 173.483 173.483 0 387.484 0C601.485 0 774.968 173.483 774.968 387.484C774.968 601.485 601.485 774.968 387.484 774.968C173.483 774.968 0 601.485 0 387.484Z" fill="white"/>
<path d="M781.426 749.136C781.426 610.035 894.189 497.271 1033.29 497.271C1172.39 497.271 1285.15 610.035 1285.15 749.136C1285.15 888.237 1172.39 1001 1033.29 1001C894.189 1001 781.426 888.237 781.426 749.136Z" fill="white"/>
</mask>
<g mask="url(#mask0_215_18009)">
<rect x="-80" y="-14" width="1440" height="1306" fill="url(#paint0_linear_215_18009)"/>
</g>
<defs>
<linearGradient id="paint0_linear_215_18009" x1="-150.258" y1="-264" x2="1858.68" y2="110.437" gradientUnits="userSpaceOnUse">
<stop stop-color="#FFD600"/>
<stop offset="0.494792" stop-color="#FB5909"/>
<stop offset="1" stop-color="#FC248C"/>
</linearGradient>
</defs>
</svg>
