<svg width="1440" height="1001" viewBox="0 0 1440 1001" fill="none" xmlns="http://www.w3.org/2000/svg">
<mask id="mask0_215_18847" style="mask-type:alpha" maskUnits="userSpaceOnUse" x="80" y="0" width="1286" height="1001">
<path d="M646.399 632.891L743.27 465.105L1078.84 658.847L981.97 826.633L646.399 632.891Z" fill="black"/>
<path d="M80 387.484C80 173.483 253.483 0 467.484 0C681.485 0 854.968 173.483 854.968 387.484C854.968 601.485 681.485 774.968 467.484 774.968C253.483 774.968 80 601.485 80 387.484Z" fill="black"/>
<path d="M861.426 749.136C861.426 610.035 974.189 497.271 1113.29 497.271C1252.39 497.271 1365.15 610.035 1365.15 749.136C1365.15 888.237 1252.39 1001 1113.29 1001C974.189 1001 861.426 888.237 861.426 749.136Z" fill="black"/>
</mask>
<g mask="url(#mask0_215_18847)">
<rect x="-192" y="-339" width="1846" height="1671" fill="#6E47A7"/>
</g>
</svg>
