<svg width="272" height="15" viewBox="0 0 272 15" fill="none" xmlns="http://www.w3.org/2000/svg">
<path opacity="0.5" fill-rule="evenodd" clip-rule="evenodd" d="M228.644 3.55176H229.4C229.922 3.55176 230.345 3.97543 230.345 4.49699V11.3004C230.345 11.822 229.922 12.2456 229.4 12.2456H228.644C228.122 12.2456 227.7 11.822 227.7 11.3004V4.49699C227.7 3.97543 228.122 3.55176 228.644 3.55176" fill="white"/>
<path fill-rule="evenodd" clip-rule="evenodd" d="M224.864 5.44141H225.62C226.142 5.44141 226.564 5.86425 226.564 6.38664V11.3004C226.564 11.822 226.142 12.2456 225.62 12.2456H224.864C224.341 12.2456 223.919 11.822 223.919 11.3004V6.38664C223.919 5.86425 224.341 5.44141 224.864 5.44141" fill="white"/>
<path fill-rule="evenodd" clip-rule="evenodd" d="M221.084 7.33203H221.84C222.362 7.33203 222.785 7.75488 222.785 8.27645V11.3005C222.785 11.8221 222.362 12.2458 221.84 12.2458H221.084C220.562 12.2458 220.14 11.8221 220.14 11.3005V8.27645C220.14 7.75488 220.562 7.33203 221.084 7.33203" fill="white"/>
<path fill-rule="evenodd" clip-rule="evenodd" d="M217.304 8.46484H218.06C218.583 8.46484 219.005 8.88769 219.005 9.40926V11.2997C219.005 11.8213 218.583 12.245 218.06 12.245H217.304C216.783 12.245 216.36 11.8213 216.36 11.2997V9.40926C216.36 8.88769 216.783 8.46484 217.304 8.46484" fill="white"/>
<path fill-rule="evenodd" clip-rule="evenodd" d="M240.862 8.98145C239.984 8.98145 239.252 9.57787 239.049 10.3791L240.948 12.2458L242.705 10.5182C242.557 9.64698 241.791 8.98145 240.862 8.98145" fill="white"/>
<path fill-rule="evenodd" clip-rule="evenodd" d="M240.861 6.33984C239.253 6.33984 237.842 7.16004 237.03 8.39567L238.202 9.54575C238.685 8.57583 239.688 7.9029 240.861 7.9029C242.079 7.9029 243.124 8.62437 243.583 9.65516L244.758 8.50015C243.958 7.20693 242.514 6.33984 240.861 6.33984" fill="white"/>
<path opacity="0.5" fill-rule="evenodd" clip-rule="evenodd" d="M240.862 3.55176C238.472 3.55176 236.352 4.67058 235 6.39981L236.178 7.55729C237.219 6.11763 238.927 5.17487 240.862 5.17487C242.84 5.17487 244.585 6.15795 245.619 7.65354L246.798 6.49606C245.449 4.71253 243.296 3.55176 240.862 3.55176" fill="white"/>
<path fill-rule="evenodd" clip-rule="evenodd" d="M261.583 10.6219H254.226C253.531 10.6219 252.968 10.0592 252.968 9.36488V6.12031C252.968 5.4268 253.531 4.86328 254.226 4.86328H261.583C262.277 4.86328 262.84 5.4268 262.84 6.12031V9.36488C262.84 10.0592 262.277 10.6219 261.583 10.6219" fill="white"/>
<path opacity="0.5" fill-rule="evenodd" clip-rule="evenodd" d="M268.599 10.1405C268.599 10.8603 268.015 11.4444 267.295 11.4444H253.449C252.73 11.4444 252.145 10.8603 252.145 10.1405V5.34437C252.145 4.62454 252.73 4.04045 253.449 4.04045H267.295C268.015 4.04045 268.599 4.62454 268.599 5.34437V10.1405ZM267.566 3.21777H253.178C252.154 3.21777 251.323 4.04866 251.323 5.07287V10.4119C251.323 11.4361 252.154 12.267 253.178 12.267H267.566C268.59 12.267 269.421 11.4361 269.421 10.4119V5.07287C269.421 4.04866 268.59 3.21777 267.566 3.21777V3.21777Z" fill="white"/>
<path opacity="0.5" fill-rule="evenodd" clip-rule="evenodd" d="M270.038 9.38732V9.38732V6.09668C270.719 6.09668 271.272 6.64951 271.272 7.33067V8.15333C271.272 8.83532 270.719 9.38732 270.038 9.38732" fill="white"/>
<path d="M3.5911 12.1627C2.81986 12.1627 2.15707 11.9518 1.60274 11.53C1.05243 11.1042 0.712999 10.5459 0.584458 9.85498H1.94016C2.0446 10.2125 2.24745 10.4997 2.54872 10.7166C2.854 10.9335 3.20749 11.042 3.60918 11.042C4.28804 11.042 4.81626 10.7407 5.19385 10.1382C5.57143 9.53564 5.76023 8.68807 5.76023 7.59547H5.74818H5.74215H5.73613C5.55938 8.02528 5.25611 8.37074 4.8263 8.63183C4.39649 8.88891 3.90442 9.01746 3.35009 9.01746C2.52261 9.01746 1.83371 8.74431 1.2834 8.19801C0.7371 7.65171 0.463951 6.96683 0.463951 6.14337C0.463951 5.2717 0.76321 4.55268 1.36173 3.98629C1.96024 3.41991 2.71944 3.13672 3.63931 3.13672C4.28201 3.13672 4.85241 3.29539 5.3505 3.61272C5.85262 3.92604 6.24426 4.37593 6.52545 4.9624C6.88295 5.65732 7.0617 6.51292 7.0617 7.5292C7.0617 8.98331 6.75441 10.1201 6.13982 10.9395C5.52926 11.755 4.67968 12.1627 3.5911 12.1627ZM3.63931 7.91482C4.17355 7.91482 4.61742 7.74611 4.97091 7.40869C5.32439 7.06725 5.50114 6.63945 5.50114 6.12529C5.50114 5.61113 5.32239 5.1773 4.96488 4.82382C4.6114 4.46631 4.17556 4.28756 3.65738 4.28756C3.1392 4.28756 2.70136 4.46431 2.34386 4.81779C1.98635 5.16726 1.8076 5.59506 1.8076 6.10119C1.8076 6.62339 1.98033 7.05721 2.32578 7.40266C2.67525 7.7441 3.11309 7.91482 3.63931 7.91482ZM9.83101 10.4274C9.67837 10.58 9.49158 10.6563 9.27065 10.6563C9.04972 10.6563 8.86294 10.58 8.71029 10.4274C8.55765 10.2747 8.48133 10.088 8.48133 9.86703C8.48133 9.6461 8.55765 9.45931 8.71029 9.30667C8.86294 9.15403 9.04972 9.07771 9.27065 9.07771C9.49158 9.07771 9.67837 9.15403 9.83101 9.30667C9.98365 9.45931 10.06 9.6461 10.06 9.86703C10.06 10.088 9.98365 10.2747 9.83101 10.4274ZM9.83101 6.03491C9.67837 6.18755 9.49158 6.26387 9.27065 6.26387C9.04972 6.26387 8.86294 6.18755 8.71029 6.03491C8.55765 5.88227 8.48133 5.69548 8.48133 5.47455C8.48133 5.25363 8.55765 5.06684 8.71029 4.9142C8.86294 4.76156 9.04972 4.68523 9.27065 4.68523C9.49158 4.68523 9.67837 4.76156 9.83101 4.9142C9.98365 5.06684 10.06 5.25363 10.06 5.47455C10.06 5.69548 9.98365 5.88227 9.83101 6.03491ZM15.7576 12V10.2828H11.4073V9.10181C12.1062 7.78427 13.3374 5.85214 15.1008 3.30543H17.053V9.15001H18.2461V10.2828H17.053V12H15.7576ZM12.6666 9.13796V9.16809H15.7696V4.34782H15.7455C14.3075 6.42455 13.2812 8.02127 12.6666 9.13796ZM21.5215 12V4.64306H21.4914L19.2198 6.25785V4.93227L21.5094 3.30543H22.841V12H21.5215Z" fill="white"/>
</svg>
